:SAMPLES-PER-SECOND 30
:FULLY-SPECIFIED
:DEGREES
239
root  -20.9302 39.1371 3.07185 -177.136 83.6434 -168.451
RightUpLeg  0.0945381 -9.98882 1.70224
RightLeg  21.3709 -2.04108 0.176888
RightFoot  -12.0216 -0.101906 -3.39596
RightToes  5.82063e-011 0 -3.6325e-017
Spine  7.02039 -0.760944 14.1837
Spine1  14.3384 1.91037 -2.73363
HEad  8.32578 -4.66749 -4.12597
LeftShoulder1  0.0747782 3.29013 -28.9717
LeftArm  -8.9462 9.44382 -35.8462
LeftForeArm  48.989 -77.5262 -56.5087
LeftHand  0.0424087 1.32798 -1.44173
RightShoulder  -0.160053 -3.98163 25.4546
RightArm  -8.80227 -12.6604 40.4372
RightForeArm  93.0397 77.9004 114.373
RightHand  -0.143734 -3.13059 -6.71311
LeftUpLeg  -16.7924 -1.26139 3.60471
LeftLeg  56.7998 -2.44298 -3.53137
LeftFoot  1.18389 0.341749 -3.17105
LeftToes  2.58842e-009 -1.78069e-010 3.24654e-012
240
root  -19.6428 39.2384 3.12788 178.376 84.1547 -173.07
RightUpLeg  3.04944 -9.81993 0.969058
RightLeg  19.643 -1.74566 0.554056
RightFoot  -13.0917 -0.14145 -3.50234
RightToes  5.82063e-011 0 -3.6325e-017
Spine  6.9535 -0.304258 14.5684
Spine1  13.7419 2.67546 -4.4578
HEad  7.87941 -4.42221 -3.9583
LeftShoulder1  0.158394 3.04699 -28.5113
LeftArm  -9.1744 9.8383 -35.83
LeftForeArm  49.1146 -77.5642 -56.8756
LeftHand  0.0432425 0.91937 -1.26889
RightShoulder  -0.249386 -4.25353 25.8723
RightArm  -8.24604 -12.3302 40.1093
RightForeArm  92.2712 77.9464 113.782
RightHand  -0.140392 -3.23473 -6.83264
LeftUpLeg  -18.3617 -0.608836 2.57158
LeftLeg  48.5462 -2.83334 -3.02571
LeftFoot  -0.0244074 0.301173 -3.06123
LeftToes  2.58842e-009 -1.78069e-010 3.24654e-012
241
root  -18.3658 39.2771 3.15782 177.067 84.5955 -174.592
RightUpLeg  5.98796 -9.65355 0.588429
RightLeg  17.6764 -1.48372 0.92017
RightFoot  -14.0946 -0.177345 -3.39463
RightToes  5.82063e-011 0 -3.6325e-017
Spine  6.46005 0.019724 14.7773
Spine1  13.6973 3.03965 -5.62393
HEad  6.88271 -4.35776 -4.10794
LeftShoulder1  0.120366 3.15833 -28.6928
LeftArm  -9.27502 9.88244 -35.4315
LeftForeArm  50.3991 -77.7284 -58.0638
LeftHand  0.0464437 1.15468 -1.45852
RightShoulder  -0.211508 -4.13879 25.707
RightArm  -7.86492 -11.9824 40.3991
RightForeArm  90.2136 77.9559 113.015
RightHand  -0.151715 -3.20473 -7.37075
LeftUpLeg  -18.8988 0.102356 1.88683
LeftLeg  38.0203 -3.29062 -2.39096
LeftFoot  -0.541454 0.40076 -4.20421
LeftToes  2.58842e-009 -1.78069e-010 3.24654e-012
242
root  -17.1006 39.2827 3.21925 176.644 84.8899 -175.063
RightUpLeg  9.07904 -9.51256 0.382447
RightLeg  15.636 -1.28211 1.25514
RightFoot  -14.7566 -0.212874 -3.79995
RightToes  5.82063e-011 0 -3.6325e-017
Spine  6.35059 0.342572 14.0986
Spine1  13.5541 3.14494 -5.81005
HEad  6.47238 -3.99839 -4.14169
LeftShoulder1  0.127067 3.13901 -28.6913
LeftArm  -9.53911 10.0794 -35.4442
LeftForeArm  51.5922 -77.8721 -59.1478
LeftHand  0.0661374 0.805716 -1.8116
RightShoulder  -0.208614 -4.12907 25.7398
RightArm  -7.66029 -11.4312 40.4223
RightForeArm  89.6647 78.039 112.183
RightHand  -0.128778 -3.50108 -7.03715
LeftUpLeg  -18.1587 0.624186 1.37469
LeftLeg  25.614 -4.02572 -1.79334
LeftFoot  0.157225 0.416587 -4.14547
LeftToes  2.58842e-009 -1.78069e-010 3.24654e-012
243
root  -15.8187 39.2688 3.28933 176.434 84.9749 -175.264
RightUpLeg  12.4526 -9.15527 0.361322
RightLeg  13.115 -1.55161 1.353
RightFoot  -15.1828 -0.234832 -3.93403
RightToes  5.82063e-011 0 -3.6325e-017
Spine  5.7798 0.598372 13.2045
Spine1  14.2581 3.19982 -5.88524
HEad  5.91206 -3.82657 -3.88797
LeftShoulder1  0.12476 3.14457 -28.5949
LeftArm  -9.82925 9.84722 -35.7454
LeftForeArm  51.1592 -77.828 -58.8533
LeftHand  0.0499802 0.890263 -1.43403
RightShoulder  -0.213176 -4.14451 25.6731
RightArm  -7.7937 -10.7643 40.5848
RightForeArm  88.2483 78.1514 110.771
RightHand  -0.114059 -3.82389 -7.29133
LeftUpLeg  -16.4921 0.735339 0.847254
LeftLeg  12.5583 -4.9985 -0.864321
LeftFoot  0.0932853 0.532252 -5.31792
LeftToes  2.58842e-009 -1.78069e-010 3.24654e-012
244
root  -14.5309 39.178 3.31268 174.768 85.3287 -176.897
RightUpLeg  15.5911 -9.00564 0.0499116
RightLeg  11.2415 -1.2533 1.41616
RightFoot  -16.034 -0.263856 -3.8034
RightToes  5.82063e-011 0 -3.6325e-017
Spine  5.63173 0.786999 11.8457
Spine1  14.3488 3.17671 -5.75216
HEad  5.82629 -2.97879 -3.6807
LeftShoulder1  0.0824273 3.26735 -28.7108
LeftArm  -9.81009 10.1223 -35.6973
LeftForeArm  52.5705 -77.9954 -60.2148
LeftHand  0.0532033 0.960245 -1.55131
RightShoulder  -0.162097 -3.98606 25.5854
RightArm  -7.74409 -10.2801 40.598
RightForeArm  86.3867 78.2771 108.981
RightHand  -0.083242 -4.35832 -7.27866
LeftUpLeg  -14.9941 1.568 -0.0505797
LeftLeg  2.08181 -6.63673 0.134883
LeftFoot  -0.580439 0.457155 -4.82453
LeftToes  2.58842e-009 -1.78069e-010 3.24654e-012
245
root  -13.1398 38.9304 3.28366 173.535 85.4242 -177.91
RightUpLeg  18.5088 -9.23256 -0.443904
RightLeg  10.8415 -0.718667 1.44456
RightFoot  -17.7501 -0.287078 -2.99335
RightToes  5.82063e-011 0 -3.6325e-017
Spine  5.34066 0.806426 10.629
Spine1  14.4313 3.03694 -5.53633
HEad  5.88892 -2.76195 -3.06174
LeftShoulder1  0.112805 3.17942 -28.6218
LeftArm  -9.79446 10.3998 -35.4527
LeftForeArm  53.9043 -78.1622 -61.8121
LeftHand  0.0358509 1.26659 -1.22052
RightShoulder  -0.209543 -4.1346 25.6063
RightArm  -7.34377 -9.85743 40.656
RightForeArm  83.5468 78.3941 106.755
RightHand  -0.0983067 -4.18915 -8.04456
LeftUpLeg  -14.5823 1.7001 -0.649912
LeftLeg  -1.78121 -7.12728 0.0398629
LeftFoot  -1.98327 0.47481 -5.64115
LeftToes  2.58842e-009 -1.78069e-010 3.24654e-012
246
root  -11.6619 38.5157 3.20855 173.261 84.7999 -177.738
RightUpLeg  20.9429 -10.0999 -1.14344
RightLeg  12.4976 -0.163443 1.42888
RightFoot  -20.2548 -0.277231 -1.82624
RightToes  5.82063e-011 0 -3.6325e-017
Spine  5.27845 0.496339 9.62298
Spine1  14.4365 2.61066 -5.26478
HEad  5.64683 -2.55312 -2.1041
LeftShoulder1  0.0939198 3.23224 -28.4357
LeftArm  -9.68014 10.0448 -35.3628
LeftForeArm  54.5753 -78.2374 -62.549
LeftHand  0.0319442 1.63857 -1.33267
RightShoulder  -0.18502 -4.05776 25.5973
RightArm  -7.36288 -10.2479 40.9118
RightForeArm  84.2666 78.3346 107.606
RightHand  -0.0670896 -4.77615 -9.07067
LeftUpLeg  -14.9848 0.967938 -1.5215
LeftLeg  1.44994 -5.66712 -0.263349
LeftFoot  -1.79186 0.552429 -6.39342
LeftToes  2.58842e-009 -1.78069e-010 3.24654e-012
